<svg width="52" height="52" viewBox="0 0 52 52" fill="none" xmlns="http://www.w3.org/2000/svg">
<g id="icons8-facebook">
<path id="Path" d="M26 0C11.6406 0 0 11.6406 0 26C0 40.3594 11.6406 52 26 52C40.3594 52 52 40.3594 52 26C52 11.6406 40.3594 0 26 0Z" fill="#039BE5"/>
<path id="Path_2" d="M29.5196 32.8913H36.2481L37.3045 26.0561H29.5182V22.3203C29.5182 19.4808 30.446 16.9629 33.1021 16.9629H37.3702V10.998C36.6203 10.8967 35.0343 10.675 32.0375 10.675C25.7797 10.675 22.1109 13.9798 22.1109 21.5088V26.0561H15.678V32.8913H22.1109V51.6784C23.3849 51.87 24.6753 52 26 52C27.1973 52 28.366 51.8905 29.5196 51.7345V32.8913Z" fill="white"/>
</g>
</svg>
