<svg width="52" height="52" viewBox="0 0 52 52" fill="none" xmlns="http://www.w3.org/2000/svg">
<g id="icons8-google">
<path id="Path" d="M51.4943 20.9079H49.4V20.8H26V31.2H40.6939C38.5502 37.2541 32.7899 41.6 26 41.6C17.3849 41.6 10.4 34.6151 10.4 26C10.4 17.3849 17.3849 10.4 26 10.4C29.9767 10.4 33.5946 11.9002 36.3493 14.3507L43.7034 6.9966C39.0598 2.6689 32.8484 0 26 0C11.6415 0 0 11.6415 0 26C0 40.3585 11.6415 52 26 52C40.3585 52 52 40.3585 52 26C52 24.2567 51.8206 22.555 51.4943 20.9079Z" fill="#FFC107"/>
<path id="Path_2" d="M2.9978 13.8983L11.5401 20.163C13.8515 14.4404 19.4493 10.4 26 10.4C29.9767 10.4 33.5946 11.9002 36.3493 14.3507L43.7034 6.9966C39.0598 2.6689 32.8484 0 26 0C16.0134 0 7.3528 5.6381 2.9978 13.8983Z" fill="#FF3D00"/>
<path id="Path_3" d="M26 51.9998C32.7158 51.9998 38.818 49.4297 43.4317 45.2502L35.3847 38.4408C32.7743 40.4181 29.5295 41.5998 26 41.5998C19.2374 41.5998 13.4953 37.2878 11.3321 31.2701L2.85352 37.8025C7.15652 46.2226 15.8951 51.9998 26 51.9998Z" fill="#4CAF50"/>
<path id="Path_4" d="M51.4943 20.9079H49.4V20.8H26V31.2H40.6939C39.6643 34.1081 37.7936 36.6158 35.3808 38.4423C35.3821 38.441 35.3834 38.441 35.3847 38.4397L43.4317 45.2491C42.8623 45.7665 52 39 52 26C52 24.2567 51.8206 22.555 51.4943 20.9079Z" fill="#1976D2"/>
</g>
</svg>
